<svg width="35" height="35" viewBox="0 0 35 35" fill="none" xmlns="http://www.w3.org/2000/svg">
<g id="LOGO">
<path id="F" d="M23.948 16.024L25.278 16.108C25.3993 16.108 25.4927 16.1033 25.558 16.094L24.9 17.326H24.774C24.5967 17.326 24.3447 17.2793 24.018 17.186C23.6913 17.0833 23.458 17.032 23.318 17.032C22.954 17.032 22.66 17.27 22.436 17.746C22.3893 18.278 22.366 18.698 22.366 19.006C22.366 19.314 22.3753 19.6453 22.394 20H19.356C19.1787 18.8053 19.09 17.5733 19.09 16.304C19.09 15.0253 19.1553 13.9287 19.286 13.014H26.762C26.594 14.022 26.4447 14.7267 26.314 15.128L24.802 15.198C24.886 14.9647 24.928 14.764 24.928 14.596C24.928 14.148 24.5873 13.924 23.906 13.924C23.6073 13.924 23.332 13.9473 23.08 13.994C22.8747 14.8247 22.7067 15.674 22.576 16.542C22.9493 16.1967 23.4067 16.024 23.948 16.024Z" fill="url(#paint0_linear)"/>
<path id="W" d="M19.2097 19.8314C19.2097 19.1034 19.0977 18.3847 18.8737 17.6754H22.6257C22.6351 17.8154 22.6397 18.0207 22.6397 18.2914C22.6397 19.486 22.4811 20.4754 22.1637 21.2594C21.3331 21.502 20.6424 21.824 20.0917 22.2254C19.5411 22.6267 19.2657 23.042 19.2657 23.4714C19.2657 23.8914 19.4571 24.2927 19.8397 24.6754H16.3117C15.7331 23.8167 15.2431 22.8227 14.8417 21.6934C14.5337 22.3934 14.3797 22.986 14.3797 23.4714C14.3797 23.9474 14.5151 24.3487 14.7857 24.6754H11.2717C10.5531 23.7234 9.94173 22.622 9.43773 21.3714C8.93373 20.1207 8.59306 18.8887 8.41573 17.6754H12.1397C12.2984 19.682 12.7091 21.348 13.3717 22.6734C13.8477 21.8614 14.0857 20.8767 14.0857 19.7194C14.0857 19.094 14.0064 18.4127 13.8477 17.6754H17.1797C17.3291 19.5234 17.7677 21.1894 18.4957 22.6734C18.9717 21.796 19.2097 20.8487 19.2097 19.8314Z" fill="url(#paint1_linear)"/>
<circle id="Ellipse 1" cx="17.5" cy="17.5" r="17" stroke="black"/>
</g>
<defs>
<linearGradient id="paint0_linear" x1="11.4231" y1="16.1364" x2="26.9962" y2="17.5419" gradientUnits="userSpaceOnUse">
<stop/>
<stop offset="1" stop-color="#FBB5B5"/>
</linearGradient>
<linearGradient id="paint1_linear" x1="8" y1="22.1754" x2="26.4498" y2="27.3792" gradientUnits="userSpaceOnUse">
<stop stop-color="#FBB5B5"/>
<stop offset="1"/>
</linearGradient>
</defs>
</svg>
